<?xml version="1.0" encoding="UTF-8"?>
<svg width="512" height="512" viewBox="0 0 512 512" xmlns="http://www.w3.org/2000/svg">
  <path fill="#FFD700" d="M256 64c-106.039 0-192 85.961-192 192s85.961 192 192 192 192-85.961 192-192S362.039 64 256 64z"/>
  <path fill="#FFA500" d="M256 96c-88.366 0-160 71.634-160 160s71.634 160 160 160 160-71.634 160-160S344.366 96 256 96z"/>
  <path fill="#FFD700" d="M320 192c0 35.346-28.654 64-64 64s-64-28.654-64-64 28.654-64 64-64 64 28.654 64 64z"/>
  <path fill="#FFA500" d="M288 192c0 8.837-7.163 16-16 16s-16-7.163-16-16 7.163-16 16-16 16 7.163 16 16z"/>
  <path fill="#FFD700" d="M352 256c-17.673 0-32 14.327-32 32s14.327 32 32 32 32-14.327 32-32-14.327-32-32-32z"/>
</svg> 